<svg xmlns="http://www.w3.org/2000/svg" xmlns:xlink="http://www.w3.org/1999/xlink" viewBox="0 0 243.99 88.83"><defs><clipPath id="a" transform="translate(-386.51 -476.89)"><path d="M393.5,484v18.71c0-5.67,3.69-9.07,9.08-9.07V484a4.54,4.54,0,1,0-9.08,0" style="fill:none"/></clipPath><linearGradient id="b" x1="172.9" y1="744.34" x2="175.55" y2="744.34" gradientTransform="matrix(0, 7.07, 7.07, 0, -5253.66, -1218.14)" gradientUnits="userSpaceOnUse"><stop offset="0" stop-color="#ffc80f"/><stop offset="0.52" stop-color="#f78c21"/><stop offset="1" stop-color="#f15930"/></linearGradient><clipPath id="c" transform="translate(-386.51 -476.89)"><path d="M402.58,493.66c-5.39,0-9.08,3.4-9.08,9.07v26c0,10.4,6,15.88,16.07,15.88a18.78,18.78,0,0,0,6.24-1c-9.55,1.61-13.23-4.92-13.23-12.29V501h11.06c2.55,0,4.25-1.51,4.25-3.69s-1.7-3.69-4.25-3.69Z" style="fill:none"/></clipPath><linearGradient id="d" x1="161.74" y1="731.76" x2="164.38" y2="731.76" gradientTransform="matrix(-13.51, 0, 0, 13.51, 2614.34, -9367.52)" gradientUnits="userSpaceOnUse"><stop offset="0" stop-color="#ed1c24"/><stop offset="0.19" stop-color="#ed1d29"/><stop offset="0.4" stop-color="#ed2236"/><stop offset="0.62" stop-color="#ed294d"/><stop offset="0.85" stop-color="#ee336c"/><stop offset="1" stop-color="#ee3b84"/></linearGradient><clipPath id="e" transform="translate(-386.51 -476.89)"><path d="M402.58,531.28c0,7.37,3.69,13.9,13.23,12.29a15.37,15.37,0,0,0,8.6-7.94L420.15,528c-1.89,5.67-5.2,8.7-9.74,8.7-4.73,0-7.84-2.74-7.84-9Z" style="fill:none"/></clipPath><linearGradient id="f" x1="168.1" y1="690.85" x2="170.75" y2="690.85" gradientTransform="matrix(10.16, 0, 0, -10.16, -1306.43, 7555.86)" gradientUnits="userSpaceOnUse"><stop offset="0" stop-color="#ee3b84"/><stop offset="0.31" stop-color="#c53f8c"/><stop offset="1" stop-color="#6b499d"/></linearGradient><clipPath id="g" transform="translate(-386.51 -476.89)"><path d="M417.23,519.09c0,15.13,9.92,25.62,25.9,25.62a24.12,24.12,0,0,0,11.53-2.65c-21.55,3.21-28.36-8.32-28.36-23.16,0-10.77,6.62-18.15,16.17-18.15a21,21,0,0,1,9.07,2,7.51,7.51,0,0,0,3.21.76,3.57,3.57,0,0,0,3.78-3.78c0-1.42-.85-2.84-2.84-3.78a30,30,0,0,0-13.23-2.84c-14.94,0-25.24,10.59-25.24,26" style="fill:none"/></clipPath><linearGradient id="h" x1="169.57" y1="728.24" x2="172.22" y2="728.24" gradientTransform="matrix(0, 12.97, 12.97, 0, -9007.69, -1693.35)" gradientUnits="userSpaceOnUse"><stop offset="0" stop-color="#ed2024"/><stop offset="0.2" stop-color="#ed2128"/><stop offset="0.4" stop-color="#ed2535"/><stop offset="0.62" stop-color="#ed2b4a"/><stop offset="0.83" stop-color="#ee3368"/><stop offset="1" stop-color="#ee3b84"/><stop offset="1" stop-color="#ee3b84"/></linearGradient><clipPath id="i" transform="translate(-386.51 -476.89)"><path d="M417.23,519.09c0-10,12.1-18.34,25.24-18.34a21.1,21.1,0,0,1,9.07,2,7.51,7.51,0,0,0,3.21.76,3.57,3.57,0,0,0,3.78-3.78c0-1.42-.85-2.84-2.84-3.78a30,30,0,0,0-13.23-2.84c-14.94,0-25.24,10.59-25.24,26" style="fill:none"/></clipPath><linearGradient id="j" x1="167.51" y1="704.01" x2="170.16" y2="704.01" gradientTransform="matrix(15.61, 0, 0, -15.61, -2584.48, 11020.35)" gradientUnits="userSpaceOnUse"><stop offset="0" stop-color="#ffc80f"/><stop offset="0.15" stop-color="#fcb012"/><stop offset="0.55" stop-color="#f5741b"/><stop offset="0.84" stop-color="#f14e21"/><stop offset="1" stop-color="#ef4023"/></linearGradient><clipPath id="k" transform="translate(-386.51 -476.89)"><path d="M493.51,540.54l.2-.19-.2.19m-21.27-43.2a11.9,11.9,0,0,0-3,8c0,5.29,2.36,9.17,8.32,13.33l7.09,4.92c7.09,4.91,10.4,10.11,10.4,13.42a4.48,4.48,0,0,1-1.31,3.31,13.46,13.46,0,0,0,4.06-9.83c0-5.67-2.27-9.45-7.94-13.42l-7.75-5.39c-6.81-4.73-9.73-9.36-9.73-12.48a4.28,4.28,0,0,1,1.32-3.12,15.49,15.49,0,0,0-1.42,1.23" style="fill:none"/></clipPath><linearGradient id="l" x1="176.99" y1="698.85" x2="179.64" y2="698.85" gradientTransform="matrix(10.79, 0, 0, -10.79, -1826.91, 7581.35)" gradientUnits="userSpaceOnUse"><stop offset="0" stop-color="#ed2024"/><stop offset="0.2" stop-color="#ed2128"/><stop offset="0.4" stop-color="#ed2535"/><stop offset="0.62" stop-color="#ed2b4a"/><stop offset="0.83" stop-color="#ee3368"/><stop offset="1" stop-color="#ee3b84"/></linearGradient><clipPath id="m" transform="translate(-386.51 -476.89)"><path d="M489.16,530.53c0,4.06-3.21,6.81-7.85,6.81-4.44,0-8.22-2.27-10.3-2.27a3.32,3.32,0,0,0-3.5,3.5c0,1.51.76,2.74,2.74,3.69a28.13,28.13,0,0,0,11.15,2.46c5,0,9.17-1.51,12.1-4.16A4.48,4.48,0,0,0,495,537c0-3.31-3.31-8.51-10.4-13.42,3.21,2.27,4.54,4.16,4.54,6.9" style="fill:none"/></clipPath><linearGradient id="n" x1="130.6" y1="737.96" x2="133.25" y2="737.96" gradientTransform="matrix(-9.83, 0, 0, 9.83, 1775.64, -6716.71)" gradientUnits="userSpaceOnUse"><stop offset="0" stop-color="#ee3b84"/><stop offset="0.31" stop-color="#c53f8c"/><stop offset="1" stop-color="#6b499d"/></linearGradient><clipPath id="o" transform="translate(-386.51 -476.89)"><path d="M473.66,496.12a4.28,4.28,0,0,0-1.32,3.12c0,3.12,2.93,7.75,9.73,12.48-3-2.17-4.35-4.16-4.35-6.52,0-3,2.46-4.92,6-4.92,4.44,0,6.52,2.08,9.17,2.08a3.32,3.32,0,0,0,3.5-3.5c0-1.51-.75-2.74-2.74-3.69a23,23,0,0,0-10.21-2.08,15.93,15.93,0,0,0-9.74,3" style="fill:none"/></clipPath><linearGradient id="p" x1="181.74" y1="697.07" x2="184.39" y2="697.07" gradientTransform="matrix(9.07, 0, 0, -9.07, -1563.37, 6350.97)" xlink:href="#b"/><clipPath id="q" transform="translate(-386.51 -476.89)"><path d="M465.15,511.05,463,518.24C459.1,530.9,453,537,443.41,537c-10.49,0-17.11-7.28-17.11-18.06,0,14.84,6.81,26.37,28.36,23.16,6.9-3.59,11.81-10.87,15.22-22l2-6.52a12.89,12.89,0,0,1-2.65-8.13,11.9,11.9,0,0,1,3-8c-2.84,3-5.2,7.47-7.09,13.71" style="fill:none"/></clipPath><linearGradient id="r" x1="151.31" y1="690.56" x2="153.96" y2="690.56" gradientTransform="matrix(12.66, 0, 0, -12.66, -1481.55, 9267.11)" xlink:href="#n"/></defs><title>Tata Consultancy Services logo</title><polygon points="128.48 29.8 133.48 29.8 133.48 20.88 137.03 20.88 137.03 17.28 124.93 17.28 124.93 20.88 128.48 20.88 128.48 29.8" style="fill:#0578d6"/><polygon points="140.71 29.8 143.26 22.31 145.81 29.8 150.69 29.8 145.9 17.28 140.61 17.28 135.82 29.8 140.71 29.8" style="fill:#0578d6"/><polygon points="153.04 29.8 158.04 29.8 158.04 20.88 161.59 20.88 161.59 17.28 149.49 17.28 149.49 20.88 153.04 20.88 153.04 29.8" style="fill:#0578d6"/><polygon points="165.28 29.8 167.82 22.31 170.37 29.8 175.26 29.8 170.47 17.28 165.18 17.28 160.39 29.8 165.28 29.8" style="fill:#0578d6"/><path d="M599.77,515.65A40.17,40.17,0,0,0,602,520l3.27,5.51h2.37V513h-2.11v4.37c0,1.91,0,3.53.2,5.19h0a34.3,34.3,0,0,0-2.14-4.2L600.33,513h-2.61v12.52h2.11V521c0-2.06,0-3.71-.12-5.33Z" transform="translate(-386.51 -476.89)" style="fill:#0578d6"/><path d="M588.41,521.94h4l1.14,3.54H596L591.91,513H589l-4,12.52h2.37Zm1.34-4.82c.22-.75.41-1.61.6-2.35h0c.19.73.4,1.58.63,2.35l1,3.09h-3.23Z" transform="translate(-386.51 -476.89)" style="fill:#0578d6"/><path d="M551.13,523.78a6.32,6.32,0,0,1-3-.8l-.51,1.89a7.28,7.28,0,0,0,3.38.8c3.23,0,4.75-1.75,4.75-3.76,0-1.8-1-2.89-3.22-3.72-1.67-.64-2.4-1.09-2.4-2.05,0-.74.62-1.51,2.07-1.51a5.41,5.41,0,0,1,2.5.6l.55-1.85a6.67,6.67,0,0,0-3-.62c-2.72,0-4.43,1.55-4.43,3.6,0,1.8,1.32,2.91,3.39,3.64,1.58.58,2.22,1.14,2.22,2.08s-.82,1.71-2.28,1.71" transform="translate(-386.51 -476.89)" style="fill:#0578d6"/><path d="M518.25,514.65a6,6,0,0,1,2.44.49l.5-1.82a7,7,0,0,0-3-.56c-3.83,0-6.7,2.49-6.7,6.61,0,3.81,2.42,6.31,6.4,6.31a8,8,0,0,0,3.25-.57l-.38-1.8a6.62,6.62,0,0,1-2.5.46c-2.75,0-4.36-1.75-4.36-4.51,0-3,1.84-4.6,4.39-4.6" transform="translate(-386.51 -476.89)" style="fill:#0578d6"/><polygon points="195.68 48.59 195.68 37.99 199.29 37.99 199.29 36.06 189.81 36.06 189.81 37.99 193.39 37.99 193.39 48.59 195.68 48.59" style="fill:#0578d6"/><path d="M627.92,513l-1.51,3.21c-.43.91-.78,1.69-1.08,2.49h0c-.34-.85-.67-1.56-1.09-2.48L622.71,513h-2.62l4,7.31v5.21h2.29V520.2L630.5,513Z" transform="translate(-386.51 -476.89)" style="fill:#0578d6"/><path d="M527.82,512.75c-3.54,0-6,2.72-6,6.56,0,3.67,2.24,6.37,5.78,6.37h0c3.43,0,6-2.4,6-6.6,0-3.58-2.16-6.34-5.81-6.34m-.09,11.1h0c-2.19,0-3.47-2.11-3.46-4.6s1.2-4.68,3.48-4.68,3.46,2.23,3.46,4.6c0,2.62-1.25,4.68-3.46,4.68" transform="translate(-386.51 -476.89)" style="fill:#0578d6"/><path d="M616.43,514.65a6,6,0,0,1,2.44.49l.5-1.82a7,7,0,0,0-3-.56c-3.83,0-6.7,2.49-6.7,6.61,0,3.81,2.42,6.31,6.4,6.31a8,8,0,0,0,3.25-.57l-.38-1.8a6.67,6.67,0,0,1-2.5.46c-2.75,0-4.36-1.75-4.36-4.51,0-3,1.84-4.6,4.39-4.6" transform="translate(-386.51 -476.89)" style="fill:#0578d6"/><polygon points="185.94 36.06 183.65 36.06 183.65 48.59 191.09 48.59 191.09 46.67 185.94 46.67 185.94 36.06" style="fill:#0578d6"/><path d="M567.56,520.11V513h-2.29v7.3c0,2.46-1,3.59-2.64,3.59s-2.57-1.14-2.57-3.59V513h-2.29v7.17c0,3.94,1.88,5.56,4.77,5.56s5-1.72,5-5.58" transform="translate(-386.51 -476.89)" style="fill:#0578d6"/><path d="M545.52,513H543.4v4.37c0,1.92,0,3.53.21,5.19h0a33.89,33.89,0,0,0-2.13-4.2L538.2,513h-2.61v12.52h2.12V521c0-2.06,0-3.71-.12-5.34h.06a40.18,40.18,0,0,0,2.25,4.32l3.27,5.51h2.37Z" transform="translate(-386.51 -476.89)" style="fill:#0578d6"/><rect x="166.51" y="54.85" width="2.29" height="12.52" style="fill:#0578d6"/><path d="M537.29,538.39v-.05a3.29,3.29,0,0,0,2.26-3.11,3.14,3.14,0,0,0-1.07-2.5,6.22,6.22,0,0,0-3.83-1,18.63,18.63,0,0,0-3.44.27v12.26h2.25v-5.11h1.14c1.29,0,1.88.56,2.24,2.17a16.7,16.7,0,0,0,.83,2.93H540a27.28,27.28,0,0,1-1-3.46,3.13,3.13,0,0,0-1.73-2.41m-2.49-.9h-1.34v-3.93a6.42,6.42,0,0,1,1.41-.11c1.47,0,2.42.64,2.42,2s-.95,2-2.49,2" transform="translate(-386.51 -476.89)" style="fill:#0578d6"/><path d="M547.41,537.47c-.48,1.52-.94,3.05-1.27,4.53h0c-.33-1.51-.75-3-1.23-4.56l-1.71-5.69h-2.5l4.05,12.52h2.62l4.33-12.52h-2.43Z" transform="translate(-386.51 -476.89)" style="fill:#0578d6"/><polygon points="184.63 61.81 189.35 61.81 189.35 59.95 184.63 59.95 184.63 56.73 189.63 56.73 189.63 54.85 182.34 54.85 182.34 67.37 189.9 67.37 189.9 65.48 184.63 65.48 184.63 61.81" style="fill:#0578d6"/><path d="M564.08,533.43a6,6,0,0,1,2.44.49l.5-1.82a7,7,0,0,0-3-.56c-3.83,0-6.7,2.49-6.7,6.61,0,3.81,2.42,6.31,6.4,6.31a8,8,0,0,0,3.25-.57l-.38-1.8a6.67,6.67,0,0,1-2.5.46c-2.75,0-4.36-1.75-4.36-4.51,0-3,1.84-4.6,4.39-4.6" transform="translate(-386.51 -476.89)" style="fill:#0578d6"/><path d="M516.36,537c-1.67-.64-2.4-1.09-2.4-2.05,0-.74.62-1.51,2.07-1.51a5.41,5.41,0,0,1,2.5.6l.55-1.85a6.67,6.67,0,0,0-3-.62c-2.72,0-4.43,1.55-4.43,3.6,0,1.8,1.32,2.91,3.39,3.64,1.58.58,2.22,1.14,2.22,2.08s-.82,1.71-2.28,1.71a6.32,6.32,0,0,1-3-.8l-.51,1.89a7.28,7.28,0,0,0,3.38.8c3.23,0,4.75-1.75,4.75-3.77,0-1.8-1-2.89-3.22-3.72" transform="translate(-386.51 -476.89)" style="fill:#0578d6"/><polygon points="137.41 61.81 142.13 61.81 142.13 59.95 137.41 59.95 137.41 56.73 142.41 56.73 142.41 54.85 135.12 54.85 135.12 67.37 142.69 67.37 142.69 65.48 137.41 65.48 137.41 61.81" style="fill:#0578d6"/><path d="M582.79,537c-1.67-.64-2.4-1.09-2.4-2.05,0-.74.62-1.51,2.07-1.51a5.41,5.41,0,0,1,2.5.6l.55-1.85a6.67,6.67,0,0,0-3-.62c-2.72,0-4.43,1.55-4.43,3.6,0,1.8,1.32,2.91,3.39,3.64,1.58.58,2.22,1.14,2.22,2.08s-.82,1.71-2.28,1.71a6.32,6.32,0,0,1-3-.8l-.51,1.89a7.28,7.28,0,0,0,3.38.8c3.23,0,4.75-1.75,4.75-3.77,0-1.8-1-2.89-3.22-3.72" transform="translate(-386.51 -476.89)" style="fill:#0578d6"/><g style="clip-path:url(#a)"><rect x="6.99" y="2.4" width="9.08" height="23.44" style="fill:url(#b)"/></g><g style="clip-path:url(#c)"><rect x="378.51" y="503.81" width="54.37" height="31.21" transform="translate(-550.89 373.29) rotate(-82.13)" style="fill:url(#d)"/></g><g style="clip-path:url(#e)"><rect x="400.44" y="524.8" width="26.1" height="23.27" transform="translate(-529.39 -326.71) rotate(-17.6)" style="fill:url(#f)"/></g><g style="clip-path:url(#g)"><rect x="410.89" y="488.45" width="53.98" height="61.47" transform="translate(-511.55 -337.73) rotate(-15.83)" style="fill:url(#h)"/></g><g style="clip-path:url(#i)"><rect x="30.71" y="16.2" width="41.31" height="25.99" style="fill:url(#j)"/></g><g style="clip-path:url(#k)"><rect x="82.7" y="19.23" width="28.55" height="44.42" style="fill:url(#l)"/></g><g style="clip-path:url(#m)"><rect x="465.27" y="520.46" width="31.98" height="27.42" transform="translate(-507.18 -335.95) rotate(-14.83)" style="fill:url(#n)"/></g><g style="clip-path:url(#o)"><rect x="85.82" y="16.2" width="24.01" height="18.62" style="fill:url(#p)"/></g><g style="clip-path:url(#q)"><rect x="416.84" y="489.21" width="64.86" height="64.2" transform="translate(-616.42 155.46) rotate(-58.53)" style="fill:url(#r)"/></g></svg>