<svg version="1.1" id="Layer_1" xmlns="http://www.w3.org/2000/svg" xmlns:xlink="http://www.w3.org/1999/xlink" x="0px" y="0px" viewBox="0 0 400 260" style="enable-background:new 0 0 1200 1200;">
  <g transform="matrix(1, 0, 0, 1, -762.224, -129.779)">
    <g>
      <path style="fill:#FAB017;" d="M890.294,198.072c1.548-5.861,4.064-11.704,7.796-17.579c12.851-20.219,31.861-32.539,55.708-24.36
			c7.934,2.72,15.609,7.075,22.756,12.558c14.215,10.901,26.33,26.262,34.207,42.087c2.545,5.109,4.647,10.262,6.231,15.333
			c3.062,9.787,4.512,19.585,3.833,29.48c-0.276,4.066-0.911,8.151-1.944,12.257c-2.525,10.051-2.784,18.37-12.542,23.501
			c-21.354,11.224-48.379,9.445-70.904,3.146c-15.421-4.317-25.945-12.526-32.972-24.568c-2.784-4.768-5.02-10.137-6.794-16.102
			c-1.809-6.075-3.472-12.02-4.765-17.874C888.04,223.001,887.004,210.507,890.294,198.072z"></path>
      <path style="fill:#231F20;" d="M890.903,235.95c0.325-0.384,0.616-0.701,0.859-0.945c23.417-23.398,59.269-33.695,91.766-30.315
			c7.58,0.788,17.629,2.708,27.232,6.088c2.545,5.109,4.647,10.262,6.231,15.333c3.062,9.787,4.512,19.585,3.833,29.48
			c-20.379-15.625-54.699-15.971-77.938-11.096c-13.697,2.874-25.801,7.359-34.632,18.574c-1.553,1.975-3.724,4.332-5.792,6.858
			c-2.784-4.768-5.02-10.137-6.794-16.102C893.86,247.749,892.197,241.804,890.903,235.95z"></path>
      <path style="fill:#231F20;" d="M890.294,198.072c1.548-5.861,4.064-11.704,7.796-17.579c12.851-20.219,31.861-32.539,55.708-24.36
			c7.934,2.72,15.609,7.075,22.756,12.558c-17.716-0.714-36.971,3.38-50.296,8.085C911.337,182.038,900.345,188.995,890.294,198.072
			z"></path>
      <path style="fill:#231F20;" d="M915.008,141.649c0.345,2.992,2.362,6.931,3.66,10.2c1.393,3.508,2.459,7.258,4.156,10.631
			c2.097,4.167,8.315,1.66,6.717-2.791c-1.338-3.727-3.029-7.384-4.614-11.013c-1.497-3.426-3.065-7.824-6.655-9.511
			C916.605,138.381,914.809,139.922,915.008,141.649L915.008,141.649z"></path>
    </g>
    <path style="fill:#70BAB8;" d="M914.351,223.195c-0.608,7.562,0.582,16.869-9.002,17.855c-6.094,0.627-12.217-3.78-17.845-5.454
		c-12.268-3.65-24.299-8.135-35.964-13.405c-12.387-5.597-26.657-11.985-34.813-23.332c-14.919-20.757-2.909-47.811,22.369-51.313
		c23.061-3.195,48.895,14.084,59.881,33.739c5.107,9.136,9.264,18.605,12.753,28.294
		C913.34,214.048,914.738,218.384,914.351,223.195z"></path>
    <path style="fill:#70BAB8;" d="M977.525,212.153c0.369,31.341,33.912,13.334,49.262,5.839
		c11.957-5.838,23.807-12.937,33.918-21.782c1.445-1.264,2.854-2.563,4.226-3.904c13.889-10.731,19.6-30.217,8.544-45.168
		c-10.803-14.555-30.68-13.652-45.288-5.801c-2.087,1.121-4.066,2.385-5.896,3.765c-19.746,14.199-39.213,33.034-43.63,57.699
		c-0.367,1.656-0.659,3.287-0.855,4.858C977.609,209.231,977.509,210.741,977.525,212.153z"></path>
    <path style="fill:#9AD6D4;" d="M1132.959,270.617c12.479-8.006,21.912-24.63,15.358-43.204c-2.76-7.362-7.249-13.873-12.879-18.957
		c-1.617-1.495-3.319-2.874-5.081-4.141c-7.048-5.069-15.06-8.342-22.34-9.959c-31.177-6.923-61.968,2.338-88.453,13.992
		c-12.98,5.712-31.101,15.319-35.976,31.394c-9.424,31.071,24.819,31.292,40.559,35.251c7.248,1.823,14.284,3.094,21.25,4.032
		c2.327,0.31,4.651,0.587,6.992,0.846c20.872,1.871,42.518,4.853,61.775-0.474c2.235-0.716,4.358-1.432,6.449-2.244
		c2.091-0.812,4.151-1.72,6.262-2.82C1128.969,273.266,1131.007,272.04,1132.959,270.617z"></path>
    <path style="fill:#9AD6D4;" d="M856.913,295.615c-26.793,3.853-93.227,1.053-89.534-40.547
		c2.94-33.121,34.085-47.592,63.502-45.857c20.219,1.193,40.185,8.1,58.794,15.642c10.737,4.351,22.167,8.938,30.554,17.219
		c4.824,4.763,7.805,11.903,6.355,18.971c-1.96,9.548-8.632,11.741-16.127,15.629c-5.614,2.912-10.659,6.597-16.485,9.168
		C882.252,291.013,869.547,293.799,856.913,295.615z"></path>
    <g>
      <path style="fill:#231F20;" d="M896.38,314.259c-3.929,14.438-3.612,31.348,2.931,45.091
			c7.608,15.983,24.692,24.079,41.194,27.926c39.085,9.111,84.367-9.803,93.745-51.625c3.674-16.383-0.036-35.801-11.866-48.101
			c-9.258-9.626-22.663-15.913-35.703-17.552c-17.391-2.187-41.867-3.686-57.77,4.777
			C914.06,282.679,900.837,297.879,896.38,314.259z"></path>
      <g>
        <path style="fill:#FFFFFF;" d="M1005.444,345.063c18.008-3.994,23.056-27.01,13.878-41.398
				c-10.566-16.564-38.512-9.967-44.73,7.047c-4.699,12.856,0.678,26.675,13.413,32.137
				C994.563,345.663,1000.434,346.174,1005.444,345.063z"></path>
        <path d="M1001.373,305.717c-9.546-9.918-25.681-2.062-23.679,11.613c1.781,12.162,18.638,16.52,24.89,5.31
				C1005.722,317.013,1006.141,310.671,1001.373,305.717z"></path>
        <path style="fill:#FFFFFF;" d="M990.02,309.238c-0.789-4.493-7.405-5.531-9.4-1.279c-1.596,3.403,0.251,7.704,4.065,7.276
				C987.861,314.879,990.634,312.732,990.02,309.238z"></path>
      </g>
      <g>
        <path style="fill:#FFFFFF;" d="M932.751,340.804c15.604-3.461,19.978-23.404,12.025-35.871
				c-9.155-14.352-33.37-8.636-38.758,6.106c-4.072,11.14,0.587,23.113,11.622,27.846
				C923.323,341.324,928.41,341.767,932.751,340.804z"></path>
        <path d="M929.224,306.711c-8.272-8.594-22.252-1.787-20.518,10.062c1.544,10.538,16.149,14.315,21.567,4.601
				C932.992,316.5,933.355,311.004,929.224,306.711z"></path>
        <path style="fill:#FFFFFF;" d="M919.387,309.763c-0.684-3.893-6.417-4.793-8.145-1.109c-1.383,2.949,0.217,6.676,3.522,6.305
				C917.516,314.65,919.918,312.789,919.387,309.763z"></path>
      </g>
      <path style="fill:#231F20;" d="M985.952,277.387c1.241-1.159,1.734-2.813,2.425-4.318c0.65-1.415,1.534-2.707,2.556-3.875
			c2.393-2.733,5.414-4.762,8.596-6.458c3.078-1.64,6.372-2.812,9.727-3.739c2.267-0.626,8.198-2.937,5.183-6.029
			c-2.433-2.495-7.821-0.373-10.519,0.556c-3.703,1.275-7.306,2.934-10.621,5.022c-3.323,2.094-6.164,4.676-8.502,7.825
			c-2.064,2.781-4.288,7.17-2.49,10.546C983.034,278.279,984.898,278.372,985.952,277.387L985.952,277.387z"></path>
      <path style="fill:#231F20;" d="M937.197,274.307c-0.86-4.877-6.339-8.631-10.273-10.983c-2.383-1.424-4.995-2.539-7.629-3.4
			c-2.874-0.94-6.409-1.933-9.38-1.046c-2.605,0.777-3.452,4.71-0.792,6.058c2.334,1.182,5.007,1.342,7.505,2.068
			c2.288,0.665,4.455,1.6,6.544,2.738c3.817,2.079,6.335,5.306,9.719,7.875C935.18,279.352,937.584,276.5,937.197,274.307
			L937.197,274.307z"></path>
      <path style="fill:#231F20;" d="M909.965,256.328c-1.386-2.599-4.796-2.712-7.317-2.001c-3.24,0.914-5.636,3.596-6.06,6.925
			c-0.893,7.01,6.491,9.928,12.232,8.258c2.953-0.859,5.124-2.832,6.294-5.639c1.251-3.003,0.161-6.477-2.536-8.197
			c-5.117-3.264-12.593,1.45-13.943,6.675c-0.563,2.177,1.064,4.415,3.354,4.404c2.832-0.014,7.64-0.178,7.64-4.102
			c0-3.951-5.188-2.852-7.64-2.855c1.118,1.468,2.236,2.936,3.355,4.403c0.195-0.737,0.615-1.291,1.532-1.852
			c0.661-0.404,0.629-0.352,1.525-0.569c-0.046,0.011,1.232,0.057,0.704-0.042c0.858,0.161-0.514-0.344,0.204,0.069
			c-0.36-0.208-0.434-0.429-0.583-0.787c0.306,0.737,0.052-0.526,0.056,0.399c-0.002-0.414-0.146,0.636-0.154,0.665
			c0.146-0.537-0.227,0.334-0.273,0.404c0.301-0.454-0.44,0.346-0.437,0.343c-0.049,0.043-0.908,0.458-1.186,0.553
			c-2.025,0.693-4.293,0.598-4.331-1.685c-0.045-2.697,4.242-2.543,5.959-2.574C909.803,259.099,910.63,257.575,909.965,256.328
			L909.965,256.328z"></path>
      <path style="fill:#231F20;" d="M1020.091,251.817c-0.867-0.964-1.71-1.781-3.244-1.739c-1.206,0.033-2.444,0.446-3.416,1.159
			c-2.072,1.519-3.129,3.727-2.759,6.307c0.895,6.244,10.119,5.975,13.4,2.042c1.829-2.191,2.548-5.385,0.776-7.863
			c-2.22-3.103-5.994-3.387-9.48-2.841c-2.892,0.453-5.384,2.067-6.519,4.796c-0.825,1.984-0.226,4.478,0.96,6.185
			c1.65,2.374,4.399,4.165,7.378,4.033c4.01-0.179,6.438-3.546,7.263-7.184c0.32-1.413-0.158-3.248-1.593-3.915
			c-1.872-0.87-3.335-1.225-5.291-0.358c-0.712,0.316-1.201,0.917-1.651,1.519c-0.185,0.245-0.167,0.224,0.055-0.063
			c-0.174,0.207-0.365,0.379-0.575,0.548c-2.154,1.734,0.158,5.611,2.712,4.658c0.56-0.209,1.094-0.438,1.602-0.75
			c-0.499,0.306-1.149,0.164-1.649-0.055c0.414,0.181,0.889,0.298,1.298,0.487c-0.531-1.305-1.062-2.61-1.593-3.915
			c-0.119,0.531-0.261,1.047-0.445,1.559c0.332-0.927-0.886,1.227-0.109,0.251c-0.093,0.111-0.191,0.217-0.294,0.318
			c-0.514,0.529,0.659-0.434,0.072-0.044c-0.225,0.15-0.82,0.346,0.156-0.026c-0.168,0.064-0.346,0.1-0.522,0.136
			c1.414-0.289-0.824-0.195,0.592,0.002c-0.321-0.045-1.459-0.497-0.397-0.031c-0.344-0.151-0.663-0.355-0.97-0.57
			c0.915,0.643-0.06-0.108-0.276-0.345c-0.23-0.273-0.166-0.185,0.191,0.264c-0.109-0.146-0.204-0.302-0.298-0.458
			c-0.129-0.215-0.379-0.826,0.039,0.185c-0.066-0.159-0.112-0.325-0.157-0.491c-0.09-0.332-0.006,0.898,0.027-0.072
			c-0.034,0.998-0.099,0.608-0.007,0.271c0.17-0.621-0.394,0.78-0.07,0.206c0.193-0.289,0.121-0.202-0.216,0.261
			c0.145-0.173,0.672-0.588-0.103,0.005c0.179-0.137,0.379-0.246,0.575-0.356c0.725-0.404-0.72,0.248,0.132-0.059
			c1.342-0.484,1.96-0.543,3.539-0.413c-0.372-0.045-0.368-0.03,0.011,0.045c0.867,0.207-0.539-0.319,0.183,0.054
			c0.702,0.362-0.479-0.476,0.058,0.033c0.53,0.503-0.373-0.607-0.028,0.008c-0.186-0.483-0.225-0.556-0.118-0.219
			c0.203,0.689-0.034-0.788-0.026-0.063c-0.004,0.069-0.007,0.139-0.011,0.208c0.104-0.738,0.087-0.599-0.053,0.418
			c0.128-1.114-0.268,0.327,0.134-0.566c-0.067,0.139-0.142,0.274-0.224,0.406c-0.39,0.666,0.432-0.461-0.104,0.132
			c-0.083,0.091-0.697,0.559-0.163,0.183c-0.221,0.156-0.464,0.277-0.705,0.398c0.542-0.271-0.311,0.066-0.37,0.082
			c-0.745,0.204,0.333,0.019-0.536,0.067c-0.319,0.018-0.64-0.004-0.959-0.013c-0.879-0.025,0.446,0.125-0.335-0.053
			c-0.069-0.016-0.422-0.276-0.173-0.058c-0.485-0.425,0.257,0.445-0.082-0.081c-0.34-0.528,0.149,0.513-0.039-0.083
			c-0.191-0.605,0.016,0.56-0.026-0.081c-0.009-0.134,0.066-0.76-0.032-0.117c0.031-0.2,0.091-0.394,0.152-0.586
			c-0.166,0.529,0.034-0.054,0.092-0.161c0.073-0.135,0.654-0.87,0.372-0.537c0.12-0.142,0.293-0.22,0.507-0.296
			c0.568-0.201,0.769-0.069,1.414-0.246c0.43-0.118,0.75-0.361,1.086-0.639c-0.621,0.513-0.426,0.232-0.012,0.181
			C1020.273,253.753,1020.849,252.659,1020.091,251.817L1020.091,251.817z"></path>
      <path style="fill:#FAB017;" d="M962.221,373.399c11.238-5.219,1.729-28.618-7.697-16.276
			C949.88,363.205,952.051,378.121,962.221,373.399z"></path>
    </g>
  </g>
</svg>